<mxfile host="app.diagrams.net" modified="2020-03-19T08:05:31.405Z" agent="Mozilla/5.0 (Windows NT 10.0; Win64; x64) AppleWebKit/537.36 (KHTML, like Gecko) Chrome/75.0.3770.100 Safari/537.36" etag="9I65nZvG-Zr_9R_pJhX1" version="12.8.8" type="github">
  <diagram id="C5RBs43oDa-KdzZeNtuy" name="Page-1">
    <mxGraphModel dx="1422" dy="762" grid="1" gridSize="10" guides="1" tooltips="1" connect="1" arrows="1" fold="1" page="1" pageScale="1" pageWidth="827" pageHeight="1169" math="0" shadow="0">
      <root>
        <mxCell id="WIyWlLk6GJQsqaUBKTNV-0" />
        <mxCell id="WIyWlLk6GJQsqaUBKTNV-1" parent="WIyWlLk6GJQsqaUBKTNV-0" />
        <mxCell id="r4Hwn1u0T0DXnmL0rmY5-0" value="电话进线" style="rounded=1;whiteSpace=wrap;html=1;" vertex="1" parent="WIyWlLk6GJQsqaUBKTNV-1">
          <mxGeometry x="70" y="230" width="110" height="40" as="geometry" />
        </mxCell>
        <mxCell id="r4Hwn1u0T0DXnmL0rmY5-1" value="呼入中继" style="rounded=1;whiteSpace=wrap;html=1;imageWidth=18;" vertex="1" parent="WIyWlLk6GJQsqaUBKTNV-1">
          <mxGeometry x="240" y="230" width="110" height="40" as="geometry" />
        </mxCell>
        <mxCell id="r4Hwn1u0T0DXnmL0rmY5-2" value="客服组,机器人" style="rounded=1;whiteSpace=wrap;html=1;imageWidth=18;" vertex="1" parent="WIyWlLk6GJQsqaUBKTNV-1">
          <mxGeometry x="414" y="140" width="110" height="40" as="geometry" />
        </mxCell>
        <mxCell id="r4Hwn1u0T0DXnmL0rmY5-3" value="指定IVR" style="rounded=1;whiteSpace=wrap;html=1;imageWidth=18;" vertex="1" parent="WIyWlLk6GJQsqaUBKTNV-1">
          <mxGeometry x="420" y="250" width="110" height="40" as="geometry" />
        </mxCell>
        <mxCell id="r4Hwn1u0T0DXnmL0rmY5-4" value="原流程" style="rounded=1;whiteSpace=wrap;html=1;imageWidth=18;" vertex="1" parent="WIyWlLk6GJQsqaUBKTNV-1">
          <mxGeometry x="630" y="140" width="110" height="40" as="geometry" />
        </mxCell>
        <mxCell id="r4Hwn1u0T0DXnmL0rmY5-5" value="其他" style="rounded=1;whiteSpace=wrap;html=1;imageWidth=18;" vertex="1" parent="WIyWlLk6GJQsqaUBKTNV-1">
          <mxGeometry x="630" y="220" width="110" height="40" as="geometry" />
        </mxCell>
        <mxCell id="r4Hwn1u0T0DXnmL0rmY5-6" value="指定客服组" style="rounded=1;whiteSpace=wrap;html=1;imageWidth=18;" vertex="1" parent="WIyWlLk6GJQsqaUBKTNV-1">
          <mxGeometry x="640" y="310" width="110" height="40" as="geometry" />
        </mxCell>
        <mxCell id="r4Hwn1u0T0DXnmL0rmY5-7" value="Text" style="text;html=1;align=center;verticalAlign=middle;resizable=0;points=[];autosize=1;" vertex="1" parent="WIyWlLk6GJQsqaUBKTNV-1">
          <mxGeometry x="318" y="329" width="40" height="20" as="geometry" />
        </mxCell>
      </root>
    </mxGraphModel>
  </diagram>
</mxfile>
